# xmcd
#
# Track frame offsets:
#	150
#	15931
#	28978
#	43213
#	57648
#	73683
#	92745
#	108398
#	121100
#	132983
#	149874
#	169289
#	183193
#
# Disc length: 2625 seconds
#
# Revision: 1
# Processed by: cddbd v1.5PL3 Copyright (c) Steve Scherf et al.
# Submitted via: MusicManager 7.0.4.0 
#
DISCID=c10a3f0d
DTITLE=RICK SHEA - Shaky Ground
DYEAR=2001
DGENRE=
TTITLE0=Muddy water
TTITLE1=All my friends (are gonna be strangers)
TTITLE2=Black dog
TTITLE3=Every rose
TTITLE4=Outside of Nashville
TTITLE5=Shaky ground
TTITLE6=Wanted man
TTITLE7=A house divided
TTITLE8=Touch my hand
TTITLE9=Guns that blaze like thunder
TTITLE10=Against my better judgment
TTITLE11=Cold blue flame
TTITLE12=Cold and lonely shadows
EXTD=
EXTT0=
EXTT1=
EXTT2=
EXTT3=
EXTT4=
EXTT5=
EXTT6=
EXTT7=
EXTT8=
EXTT9=
EXTT10=
EXTT11=
EXTT12=
PLAYORDER=
